<?xml version="1.0" standalone="no"?>
<!DOCTYPE svg PUBLIC "-//W3C//DTD SVG 20010904//EN"
 "http://www.w3.org/TR/2001/REC-SVG-20010904/DTD/svg10.dtd">
<svg version="1.0" xmlns="http://www.w3.org/2000/svg"
 width="512.000000pt" height="512.000000pt" viewBox="0 0 512.000000 512.000000"
 preserveAspectRatio="xMidYMid meet">

<g transform="translate(0.000000,512.000000) scale(0.100000,-0.100000)" stroke="none">
<path d="M3925 4985 c-23 -22 -25 -32 -25 -115 0 -105 14 -130 74 -130 57 0
76 35 76 137 0 76 -2 86 -25 108 -13 14 -36 25 -50 25 -14 0 -37 -11 -50 -25z"/>
<path d="M3480 4890 c-28 -28 -25 -58 14 -144 34 -74 56 -96 96 -96 28 0 70
43 70 72 0 26 -53 144 -77 171 -22 23 -78 22 -103 -3z"/>
<path d="M4372 4903 c-18 -7 -82 -148 -82 -180 0 -13 12 -35 26 -50 20 -20 31
-24 57 -19 42 8 49 17 87 105 33 76 34 106 4 135 -15 15 -65 20 -92 9z"/>
<path d="M3126 4629 c-18 -14 -26 -30 -26 -52 0 -39 2 -42 73 -105 69 -62 112
-70 146 -26 37 47 24 77 -61 152 -66 57 -91 63 -132 31z"/>
<path d="M4698 4604 c-29 -25 -61 -55 -70 -66 -41 -46 -4 -118 60 -118 25 0
45 13 97 61 55 52 65 67 65 94 0 24 -7 39 -26 54 -40 32 -68 26 -126 -25z"/>
<path d="M3805 4625 c-214 -46 -420 -208 -519 -407 -60 -123 -80 -206 -80
-343 0 -136 20 -219 79 -340 52 -108 129 -202 219 -270 78 -59 85 -86 36 -142
l-30 -34 0 -210 c0 -235 4 -255 64 -283 21 -10 60 -16 100 -16 l66 0 0 -71 c0
-79 16 -116 60 -143 23 -13 57 -16 178 -16 136 0 152 2 176 21 41 32 56 71 56
142 l0 65 81 4 c79 3 82 4 115 40 l34 38 0 207 c0 190 -2 211 -20 241 -11 18
-27 35 -35 38 -8 4 -15 19 -15 35 0 23 10 36 53 67 74 55 176 167 220 243 75
128 114 312 97 461 -17 146 -38 188 -96 188 -49 0 -77 -34 -70 -85 3 -22 10
-71 15 -110 10 -72 2 -172 -20 -250 -35 -124 -141 -263 -264 -344 -74 -49 -82
-63 -84 -143 l-1 -48 -85 0 -85 0 0 154 0 154 34 20 c82 48 110 126 105 289
-4 96 -7 113 -32 155 -49 83 -150 124 -244 97 -59 -16 -124 -78 -141 -135 -15
-51 -16 -235 -1 -287 12 -43 71 -115 106 -128 23 -8 23 -11 23 -164 l0 -156
-87 3 -88 3 -3 50 c-4 82 -8 90 -76 134 -187 122 -290 309 -290 526 0 174 57
309 184 436 123 122 261 179 436 179 153 0 286 -49 411 -152 49 -41 85 -48
121 -22 16 11 22 25 22 54 0 34 -6 44 -57 90 -71 63 -229 142 -330 164 -86 19
-254 20 -338 1z m214 -761 c18 -23 21 -41 21 -118 0 -108 -13 -136 -62 -136
-58 0 -68 20 -68 137 0 90 3 106 20 123 28 28 64 25 89 -6z m271 -994 l0 -140
-315 0 -315 0 0 140 0 140 315 0 315 0 0 -140z m-230 -330 l0 -40 -85 0 -85 0
0 40 0 40 85 0 85 0 0 -40z"/>
<path d="M2899 4241 c-26 -21 -32 -79 -10 -104 13 -17 153 -67 184 -67 26 0
67 45 67 74 0 41 -39 72 -117 95 -87 26 -95 26 -124 2z"/>
<path d="M4920 4239 c-36 -12 -75 -30 -87 -42 -33 -29 -31 -79 3 -106 34 -27
43 -26 137 5 68 23 81 31 92 57 21 50 -11 107 -60 106 -11 0 -49 -9 -85 -20z"/>
<path d="M63 3920 c-68 -41 -63 111 -63 -1895 0 -1995 -4 -1860 59 -1898 27
-16 112 -17 1156 -17 1237 0 1167 -3 1200 60 12 23 15 67 15 200 l0 170 658 0
c538 0 669 3 726 15 53 11 119 42 285 132 119 64 228 129 244 144 36 36 38
105 5 143 -23 25 -392 232 -472 264 -36 15 -121 18 -741 22 l-700 5 -3 116 -3
116 113 7 c413 24 770 226 991 561 55 84 59 93 55 137 -10 98 -210 339 -378
455 -205 140 -441 218 -680 225 l-95 3 -5 492 -5 493 -33 32 -32 33 -730 3
c-720 2 -730 2 -750 -18 -30 -30 -27 -83 6 -109 26 -21 34 -21 710 -21 l684 0
-2 -462 -3 -461 -75 -18 c-41 -10 -76 -18 -77 -19 -2 0 -3 23 -3 51 0 30 -7
63 -17 80 -37 62 -1 60 -903 57 l-822 -3 -34 -37 -34 -38 0 -560 c0 -482 2
-565 15 -590 32 -62 7 -60 759 -60 l686 0 57 -37 c108 -69 290 -142 421 -168
l32 -7 0 -129 0 -128 -484 -3 -485 -3 -33 -32 -33 -32 -399 -3 -398 -3 -19
-24 c-25 -30 -24 -62 2 -95 l20 -26 385 0 384 0 0 -105 0 -105 -384 0 -385 0
-20 -26 c-26 -33 -27 -65 -2 -95 l19 -24 391 -3 c356 -2 391 -4 391 -19 0 -25
40 -79 75 -100 28 -17 64 -18 503 -21 l472 -3 0 -139 0 -140 -1065 0 -1065 0
0 1765 0 1765 219 0 c206 0 220 1 245 21 33 26 36 79 6 109 -19 19 -33 20
-272 20 -233 0 -255 -2 -285 -20z m1907 -1100 l0 -50 -62 -31 c-188 -95 -385
-281 -485 -457 -29 -52 -34 -70 -30 -102 5 -43 67 -143 146 -237 l52 -63 -566
0 -565 0 0 495 0 495 755 0 755 0 0 -50z m650 -95 c305 -25 626 -228 802 -506
16 -26 16 -28 -29 -94 -161 -240 -444 -415 -746 -461 -398 -61 -821 121 -1055
455 l-52 73 52 74 c65 95 215 238 311 298 92 58 204 105 317 136 85 22 235 39
300 34 19 -2 64 -6 100 -9z m-922 -1822 l-3 -208 -160 0 -160 0 -3 208 -2 207
165 0 165 0 -2 -207z m1932 142 l0 -65 -164 0 c-150 0 -165 -2 -190 -21 -33
-26 -36 -79 -6 -109 18 -18 33 -20 190 -20 l170 0 0 -70 0 -70 -890 0 -890 0
0 70 0 70 575 0 c562 0 575 0 595 20 30 30 27 83 -6 109 -26 21 -35 21 -595
21 l-569 0 0 65 0 65 890 0 890 0 0 -65z m253 23 l58 -29 -3 -135 -3 -136 -55
-28 c-30 -16 -65 -31 -77 -35 l-23 -6 0 206 0 206 23 -7 c12 -3 48 -20 80 -36z
m257 -138 c22 -11 40 -22 40 -25 0 -5 -75 -45 -85 -45 -3 0 -5 20 -5 45 0 25
2 45 5 45 3 0 24 -9 45 -20z"/>
<path d="M2400 2630 c-106 -22 -226 -106 -284 -198 -91 -144 -87 -348 9 -490
158 -233 502 -256 693 -47 25 28 59 79 76 115 26 56 31 79 34 165 3 83 0 110
-17 160 -44 125 -145 229 -267 275 -65 24 -179 33 -244 20z m214 -171 c83 -39
166 -149 166 -221 0 -26 -3 -28 -43 -28 -101 0 -203 66 -251 162 -14 29 -26
67 -26 86 l0 35 55 -7 c31 -3 75 -15 99 -27z m-289 -91 c52 -160 205 -288 365
-306 l63 -7 -34 -44 c-19 -24 -59 -58 -89 -75 -50 -28 -63 -31 -140 -31 -75 0
-91 3 -138 30 -64 35 -97 71 -130 144 -21 46 -24 64 -20 130 5 83 22 127 71
179 17 17 32 32 33 32 1 0 10 -24 19 -52z"/>
<path d="M2951 3819 c-55 -7 -81 -15 -98 -31 -31 -29 -30 -72 2 -104 23 -23
30 -24 88 -19 127 14 157 30 157 88 0 29 -27 63 -55 70 -11 2 -53 0 -94 -4z"/>
<path d="M4900 3823 c-30 -11 -50 -37 -50 -65 0 -66 36 -86 158 -90 67 -3 75
-1 93 21 24 30 24 62 -1 94 -17 21 -32 27 -88 32 -37 4 -74 8 -82 10 -8 2 -22
1 -30 -2z"/>
<path d="M3065 3410 c-39 -23 -76 -48 -82 -57 -32 -42 6 -113 60 -113 36 0
161 71 178 101 23 44 -16 109 -66 109 -11 0 -52 -18 -90 -40z"/>
<path d="M4745 3425 c-49 -49 -28 -95 69 -149 78 -44 117 -46 145 -10 40 51
22 85 -78 144 -78 46 -103 49 -136 15z"/>
<path d="M785 3405 c-14 -13 -25 -36 -25 -50 0 -14 11 -37 25 -50 l24 -25 406
0 406 0 24 25 c34 33 33 77 -1 104 -26 20 -37 21 -431 21 l-404 0 -24 -25z"/>
<path d="M431 1514 c-12 -15 -21 -37 -21 -50 0 -28 30 -61 62 -69 13 -3 358
-4 766 -3 l744 3 19 24 c25 30 24 76 -1 101 -20 20 -33 20 -784 20 l-765 0
-20 -26z"/>
</g>
</svg>
